<svg width="18" height="18" viewBox="0 0 18 18" fill="none" xmlns="http://www.w3.org/2000/svg">
<path d="M16.23 12.26L13.69 11.97C13.3913 11.9349 13.0886 11.968 12.8045 12.0667C12.5205 12.1654 12.2625 12.3273 12.05 12.54L10.21 14.38C7.37117 12.9362 5.06376 10.6288 3.61998 7.79L5.46998 5.94C5.89998 5.51 6.10998 4.91 6.03998 4.3L5.74998 1.78C5.69329 1.29218 5.45917 0.842236 5.09222 0.515847C4.72526 0.189458 4.25109 0.00941607 3.75998 0.00999974H2.02998C0.89998 0.00999974 -0.0400204 0.95 0.0299796 2.08C0.55998 10.62 7.38998 17.44 15.92 17.97C17.05 18.04 17.99 17.1 17.99 15.97V14.24C18 13.23 17.24 12.38 16.23 12.26Z" fill="#F8F8F8"/>
</svg>
